# Blender v2.92.0 OBJ File: ''
# www.blender.org
mtllib lanturn.mtl
o Cube_Cube.002
v -0.935796 1.872913 0.935796
v -0.474081 2.551895 0.474081
v -0.935796 1.872913 -0.935796
v -0.474081 2.551895 -0.474081
v 0.935796 1.872913 0.935796
v 0.474081 2.551895 0.474081
v 0.935796 1.872913 -0.935796
v 0.474081 2.551895 -0.474081
v -0.535893 0.086996 -0.535893
v -0.535893 0.086996 0.535893
v 0.535893 0.086996 -0.535893
v 0.535893 0.086996 0.535893
v -0.856407 2.101524 0.856407
v -0.856407 2.101524 -0.856407
v 0.856407 2.101524 -0.856407
v 0.856407 2.101524 0.856407
v -0.606174 0.400860 0.606174
v 0.606174 0.400860 0.606174
v 0.606174 0.400860 -0.606174
v -0.606174 0.400860 -0.606174
v -1.014001 1.936205 -1.014001
v -1.014001 1.936205 1.014001
v -0.927978 2.183921 -0.927978
v 1.014001 1.936205 -1.014001
v 0.927978 2.183921 -0.927978
v 1.014001 1.936205 1.014001
v 0.927978 2.183921 0.927978
v -0.580678 0.001037 -0.580678
v -0.580678 0.001037 0.580678
v 0.580678 0.001037 -0.580678
v 0.580678 0.001037 0.580678
v -0.656832 0.341131 0.656832
v 0.656832 0.341131 -0.656832
v -0.927978 2.183921 0.927978
v 0.656832 0.341131 0.656832
v -0.656832 0.341131 -0.656832
v -0.935796 1.986087 -0.935796
v -0.935796 1.986087 0.935796
v 0.935796 1.986087 -0.935796
v 0.935796 1.986087 0.935796
v 0.606174 0.514034 0.606174
v -0.606174 0.514034 -0.606174
v -0.606174 0.514034 0.606174
v 0.606174 0.514034 -0.606174
v 0.759841 1.847694 -0.759841
v -0.759841 1.847694 -0.759841
v -0.759841 1.847694 0.759841
v 0.759841 1.847694 0.759841
v 0.492197 0.652427 0.492197
v -0.492197 0.652427 -0.492197
v -0.492197 0.652427 0.492197
v 0.492197 0.652427 -0.492197
v -0.759841 1.847695 -0.759841
v -0.759841 1.847695 0.759841
v 0.759841 1.847695 0.759841
v 0.759841 1.847695 -0.759841
v 0.492197 0.652427 0.492197
v -0.492197 0.652427 -0.492197
v -0.492197 0.652427 0.492197
v 0.492197 0.652427 -0.492197
vt 0.493535 0.000000
vt 0.625000 0.000000
vt 0.625000 0.250000
vt 0.493535 0.250000
vt 0.625000 0.500000
vt 0.493535 0.500000
vt 0.625000 0.750000
vt 0.493535 0.750000
vt 0.625000 1.000000
vt 0.493534 1.000000
vt 0.375000 0.000000
vt 0.375000 0.250000
vt 0.375000 0.250000
vt 0.375000 0.000000
vt 0.875000 0.500000
vt 0.875000 0.750000
vt 0.125000 0.500000
vt 0.375000 0.500000
vt 0.375000 0.750000
vt 0.125000 0.750000
vt 0.493535 0.750000
vt 0.493535 0.500000
vt 0.375000 1.000000
vt 0.375000 0.750000
vt 0.375000 0.750000
vt 0.375000 1.000000
vt 0.375000 0.500000
vt 0.375000 0.750000
vt 0.375000 0.750000
vt 0.375000 0.500000
vt 0.493534 1.000000
vt 0.375000 0.750000
vt 0.125000 0.750000
vt 0.375000 0.250000
vt 0.375000 0.000000
vt 0.375000 0.000000
vt 0.375000 0.250000
vt 0.375000 0.500000
vt 0.375000 0.500000
vt 0.375000 0.250000
vt 0.375000 0.000000
vt 0.375000 0.000000
vt 0.375000 0.250000
vt 0.375000 1.000000
vt 0.375000 0.750000
vt 0.375000 1.000000
vt 0.375000 0.500000
vt 0.375000 1.000000
vt 0.375000 1.000000
vt 0.375000 0.500000
vt 0.375000 0.250000
vt 0.375000 0.000000
vt 0.493535 0.250000
vt 0.493535 0.000000
vt 0.125000 0.500000
vt 0.375000 0.250000
vt 0.375000 0.000000
vt 0.375000 0.750000
vt 0.375000 0.750000
vt 0.375000 0.500000
vt 0.375000 0.500000
vt 0.375000 0.500000
vt 0.375000 0.500000
vt 0.375000 0.750000
vt 0.375000 1.000000
vt 0.375000 1.000000
vt 0.375000 0.250000
vt 0.375000 0.250000
vt 0.375000 0.750000
vt 0.375000 1.000000
vt 0.375000 0.000000
vt 0.375000 0.000000
vt 0.375000 0.750000
vt 0.375000 0.500000
vt 0.375000 0.250000
vt 0.375000 0.000000
vn -0.7623 0.6472 0.0000
vn 0.0000 0.6472 -0.7623
vn 0.7623 0.6472 0.0000
vn 0.0000 0.6472 0.7623
vn -0.7626 0.6468 0.0000
vn 0.0000 1.0000 0.0000
vn 0.0000 -1.0000 0.0000
vn -0.7550 0.6558 0.0000
vn 0.0000 -0.7773 0.6291
vn 0.7626 0.6468 0.0000
vn 0.0000 0.6558 -0.7550
vn 0.0000 -0.4621 -0.8869
vn -0.6291 -0.7773 0.0000
vn 0.6291 -0.7773 0.0000
vn 1.0000 0.0000 0.0000
vn -1.0000 0.0000 0.0000
vn 0.0000 0.0000 1.0000
vn 0.0000 -0.2185 0.9758
vn 0.0000 -0.2185 -0.9758
vn -0.9758 -0.2185 0.0000
vn 0.9758 -0.2185 0.0000
vn 0.0000 0.3280 0.9447
vn 0.9447 0.3280 0.0000
vn 0.0000 0.3280 -0.9447
vn -0.9447 0.3280 0.0000
vn 0.0000 0.6558 0.7550
vn 0.0000 -0.7773 -0.6291
vn 0.0000 0.6468 -0.7626
vn 0.8869 -0.4621 0.0000
vn 0.7550 0.6558 0.0000
vn 0.0000 0.6468 0.7626
vn 0.0000 -0.4621 0.8869
vn -0.8869 -0.4621 0.0000
vn -0.6182 -0.7860 0.0000
vn 0.6182 -0.7860 0.0000
vn -0.7071 0.0000 -0.7071
vn 0.0000 0.6357 0.7719
vn 0.0000 0.0000 -1.0000
vn 0.7071 0.0000 -0.7071
vn 0.0000 -0.7860 0.6182
vn 0.0000 -0.7860 -0.6182
vn 0.0000 0.6357 -0.7719
vn 0.7071 0.0000 0.7071
vn -0.7071 0.0000 0.7071
vn -0.7719 0.6357 0.0000
vn 0.7719 0.6357 0.0000
usemtl None
s off
f 13/1/1 2/2/1 4/3/1 14/4/1
f 14/4/2 4/3/2 8/5/2 15/6/2
f 15/6/3 8/5/3 6/7/3 16/8/3
f 16/8/4 6/7/4 2/9/4 13/10/4
f 17/11/5 20/12/5 36/13/5 32/14/5
f 8/5/6 4/15/6 2/16/6 6/7/6
f 9/17/7 11/18/7 12/19/7 10/20/7
f 15/6/8 16/8/8 27/21/8 25/22/8
f 1/23/9 5/24/9 26/25/9 22/26/9
f 19/27/10 18/28/10 35/29/10 33/30/10
f 16/8/11 13/10/11 34/31/11 27/21/11
f 10/20/12 12/19/12 31/32/12 29/33/12
f 3/34/13 1/35/13 22/36/13 21/37/13
f 5/24/14 7/38/14 24/39/14 26/25/14
f 1/35/15 3/34/15 37/40/15 38/41/15
f 20/12/16 17/11/16 43/42/16 42/43/16
f 17/44/17 18/28/17 41/45/17 43/46/17
f 3/34/17 7/38/17 39/47/17 37/40/17
f 35/29/18 32/48/18 29/49/18 31/32/18
f 36/13/19 33/30/19 30/50/19 28/51/19
f 32/14/20 36/13/20 28/51/20 29/52/20
f 33/30/21 35/29/21 31/32/21 30/50/21
f 26/25/22 27/21/22 34/31/22 22/26/22
f 24/39/23 25/22/23 27/21/23 26/25/23
f 21/37/24 23/53/24 25/22/24 24/39/24
f 22/36/25 34/54/25 23/53/25 21/37/25
f 14/4/26 15/6/26 25/22/26 23/53/26
f 7/38/27 3/34/27 21/37/27 24/39/27
f 20/12/28 19/27/28 33/30/28 36/13/28
f 9/17/29 10/20/29 29/33/29 28/55/29
f 13/1/30 14/4/30 23/53/30 34/54/30
f 18/28/31 17/44/31 32/48/31 35/29/31
f 11/18/32 9/17/32 28/55/32 30/50/32
f 12/19/33 11/18/33 30/50/33 31/32/33
f 38/41/34 37/40/34 53/56/34 54/57/34
f 39/47/35 40/58/35 55/59/35 56/60/35
f 39/47/36 44/61/36 52/62/36 45/63/36
f 43/46/37 41/45/37 49/64/37 51/65/37
f 7/38/16 5/24/16 40/58/16 39/47/16
f 19/27/38 20/12/38 42/43/38 44/61/38
f 18/28/15 19/27/15 44/61/15 41/45/15
f 5/24/38 1/23/38 38/66/38 40/58/38
f 46/67/19 45/63/19 52/62/19 50/68/19
f 48/69/18 47/70/18 51/65/18 49/64/18
f 42/43/39 37/40/39 46/67/39 50/68/39
f 40/58/40 38/66/40 47/70/40 48/69/40
f 37/40/41 39/47/41 45/63/41 46/67/41
f 44/61/42 42/43/42 50/68/42 52/62/42
f 38/41/43 43/42/43 51/71/43 47/72/43
f 41/45/44 40/58/44 48/69/44 49/64/44
f 56/60/21 55/59/21 57/73/21 60/74/21
f 54/57/20 53/56/20 58/75/20 59/76/20
f 42/43/45 43/42/45 59/76/45 58/75/45
f 44/61/43 39/47/43 56/60/43 60/74/43
f 37/40/44 42/43/44 58/75/44 53/56/44
f 41/45/46 44/61/46 60/74/46 57/73/46
f 43/42/36 38/41/36 54/57/36 59/76/36
f 40/58/39 41/45/39 57/73/39 55/59/39
